<?xml version="1.0" encoding="UTF-8" standalone="no"?><svg xmlns="http://www.w3.org/2000/svg" xmlns:xlink="http://www.w3.org/1999/xlink" contentScriptType="application/ecmascript" contentStyleType="text/css" height="885px" preserveAspectRatio="none" style="width:2364px;height:885px;" version="1.1" viewBox="0 0 2364 885" width="2364px" zoomAndPan="magnify"><defs><filter height="300%" id="fkzg6kd7qxvzh" width="300%" x="-1" y="-1"><feGaussianBlur result="blurOut" stdDeviation="2.0"/><feColorMatrix in="blurOut" result="blurOut2" type="matrix" values="0 0 0 0 0 0 0 0 0 0 0 0 0 0 0 0 0 0 .4 0"/><feOffset dx="4.0" dy="4.0" in="blurOut2" result="blurOut3"/><feBlend in="SourceGraphic" in2="blurOut3" mode="normal"/></filter></defs><g><!--MD5=[b749c95ac966a268fc049b6e153d0237]
class IEffect--><rect codeLine="1" fill="#FEFECE" filter="url(#fkzg6kd7qxvzh)" height="73.6094" id="IEffect" style="stroke:#A80036;stroke-width:1.5;" width="370" x="596" y="7"/><ellipse cx="757.25" cy="23" fill="#B4A7E5" rx="11" ry="11" style="stroke:#A80036;stroke-width:1.0;"/><path d="M758.2031,19.7813 L759.9219,19.7813 C760.3125,19.7813 760.5,19.75 760.625,19.6719 C760.8906,19.5156 761.0313,19.2344 761.0313,18.9375 C761.0313,18.6719 760.9219,18.4063 760.6875,18.2344 C760.5156,18.125 760.375,18.0938 759.9219,18.0938 L754.7813,18.0938 C754.3438,18.0938 754.2188,18.1094 754.0625,18.2031 C753.8125,18.3594 753.6563,18.6563 753.6563,18.9375 C753.6563,19.2188 753.7969,19.4688 754.0156,19.6406 C754.1719,19.75 754.3594,19.7813 754.7813,19.7813 L756.5,19.7813 L756.5,26.2969 L754.7813,26.2969 C754.3438,26.2969 754.2188,26.3125 754.0625,26.4219 C753.8125,26.5781 753.6563,26.8594 753.6563,27.1563 C753.6563,27.4063 753.7969,27.6719 754.0156,27.8281 C754.1719,27.9531 754.375,28 754.7813,28 L759.9219,28 C760.6719,28 761.0313,27.7188 761.0313,27.1563 C761.0313,26.875 760.9219,26.625 760.6875,26.4531 C760.5156,26.3281 760.375,26.2969 759.9219,26.2969 L758.2031,26.2969 L758.2031,19.7813 Z " fill="#000000"/><text fill="#000000" font-family="sans-serif" font-size="12" font-style="italic" lengthAdjust="spacing" textLength="39" x="777.75" y="27.1543">IEffect</text><line style="stroke:#A80036;stroke-width:1.5;" x1="597" x2="965" y1="39" y2="39"/><ellipse cx="607" cy="50" rx="3" ry="3" style="stroke:#038048;stroke-width:1.0;fill:none;"/><text fill="#000000" font-family="sans-serif" font-size="11" lengthAdjust="spacing" textLength="125" x="616" y="53.2104">isDestroyed: boolean;</text><line style="stroke:#A80036;stroke-width:1.5;" x1="597" x2="965" y1="59.8047" y2="59.8047"/><ellipse cx="607" cy="70.8047" fill="#84BE84" rx="3" ry="3" style="stroke:#038048;stroke-width:1.0;"/><text fill="#000000" font-family="sans-serif" font-size="11" lengthAdjust="spacing" textLength="344" x="616" y="74.0151">update(time: number, delta: number, enemy: IEnemy): void;</text><!--MD5=[caadde71a37b0e85041dc81e11d7e010]
class BaseEffect--><rect codeLine="6" fill="#FEFECE" filter="url(#fkzg6kd7qxvzh)" height="188.8516" id="BaseEffect" style="stroke:#A80036;stroke-width:1.5;" width="377" x="592.5" y="141"/><ellipse cx="745.25" cy="157" fill="#A9DCDF" rx="11" ry="11" style="stroke:#A80036;stroke-width:1.0;"/><path d="M747.3281,158.8125 L747.7188,159.7969 L747.3281,159.7969 C746.875,159.7969 746.7656,159.8125 746.6094,159.9219 C746.3594,160.0781 746.2031,160.3594 746.2031,160.6563 C746.2031,160.9219 746.3438,161.1719 746.5625,161.3281 C746.7031,161.4531 746.9063,161.5 747.3281,161.5 L749.6875,161.5 C750.0469,161.5 750.2656,161.4688 750.4063,161.375 C750.6563,161.2344 750.8125,160.9375 750.8125,160.6563 C750.8125,160.375 750.6719,160.125 750.4531,159.9688 C750.2813,159.8281 750.125,159.7969 749.6563,159.7969 L746.2656,151.5938 L742.5938,151.5938 C742.1406,151.5938 742.0156,151.6094 741.8594,151.7031 C741.6094,151.875 741.4531,152.1563 741.4531,152.4375 C741.4531,152.7188 741.5938,152.9688 741.8125,153.1406 C741.9844,153.25 742.1563,153.2813 742.5938,153.2813 L743.6719,153.2813 L741.0313,159.7969 C740.6094,159.7969 740.4531,159.8125 740.2969,159.9219 C740.0469,160.0781 739.8906,160.3594 739.8906,160.6563 C739.8906,161.2188 740.2656,161.5 741.0156,161.5 L743.2813,161.5 C743.6406,161.5 743.8594,161.4688 743.9844,161.375 C744.25,161.2344 744.3906,160.9375 744.3906,160.6563 C744.3906,160.375 744.2656,160.125 744.0469,159.9531 C743.875,159.8281 743.7344,159.7969 743.2813,159.7969 L742.8906,159.7969 L743.2813,158.8125 L747.3281,158.8125 Z M746.625,157.1094 L743.9531,157.1094 L745.2969,153.8438 L746.625,157.1094 Z " fill="#000000"/><text fill="#000000" font-family="sans-serif" font-size="12" font-style="italic" lengthAdjust="spacing" textLength="63" x="765.75" y="161.1543">BaseEffect</text><line style="stroke:#A80036;stroke-width:1.5;" x1="593.5" x2="968.5" y1="173" y2="173"/><ellipse cx="603.5" cy="184" rx="3" ry="3" style="stroke:#038048;stroke-width:1.0;fill:none;"/><text fill="#000000" font-family="sans-serif" font-size="11" font-style="italic" lengthAdjust="spacing" textLength="144" x="612.5" y="187.2104">totalDurationMs: number;</text><ellipse cx="603.5" cy="196.8047" rx="3" ry="3" style="stroke:#038048;stroke-width:1.0;fill:none;"/><text fill="#000000" font-family="sans-serif" font-size="11" lengthAdjust="spacing" textLength="163" x="612.5" y="200.0151">elapsedDurationMs: number;</text><ellipse cx="603.5" cy="209.6094" rx="3" ry="3" style="stroke:#038048;stroke-width:1.0;fill:none;"/><text fill="#000000" font-family="sans-serif" font-size="11" lengthAdjust="spacing" textLength="108" x="612.5" y="212.8198">isApplied: boolean;</text><line style="stroke:#A80036;stroke-width:1.5;" x1="593.5" x2="968.5" y1="219.4141" y2="219.4141"/><ellipse cx="603.5" cy="230.4141" fill="#84BE84" rx="3" ry="3" style="stroke:#038048;stroke-width:1.0;"/><text fill="#000000" font-family="sans-serif" font-size="11" lengthAdjust="spacing" textLength="77" x="612.5" y="233.6245">BaseEffect ();</text><text fill="#000000" font-family="sans-serif" font-size="11" lengthAdjust="spacing" textLength="0" x="616.5" y="246.4292"/><rect fill="#F24D5C" height="6" style="stroke:#C82930;stroke-width:1.0;" width="6" x="600.5" y="253.0234"/><text fill="#000000" font-family="sans-serif" font-size="11" lengthAdjust="spacing" textLength="170" x="612.5" y="259.2339">create(enemy: IEnemy): void;</text><polygon fill="#FFFF44" points="603.5,263.8281,607.5,267.8281,603.5,271.8281,599.5,267.8281" style="stroke:#B38D22;stroke-width:1.0;"/><text fill="#000000" font-family="sans-serif" font-size="11" font-style="italic" lengthAdjust="spacing" textLength="175" x="612.5" y="272.0386">_create(enemy: IEnemy): void;</text><ellipse cx="603.5" cy="281.6328" fill="#84BE84" rx="3" ry="3" style="stroke:#038048;stroke-width:1.0;"/><text fill="#000000" font-family="sans-serif" font-size="11" lengthAdjust="spacing" textLength="260" x="612.5" y="284.8433">update(enemy: IEnemy, delta: number): void;</text><polygon fill="#FFFF44" points="603.5,289.4375,607.5,293.4375,603.5,297.4375,599.5,293.4375" style="stroke:#B38D22;stroke-width:1.0;"/><text fill="#000000" font-family="sans-serif" font-size="11" font-style="italic" lengthAdjust="spacing" textLength="351" x="612.5" y="297.6479">_update(time: number, delta: number, enemy: IEnemy): void;</text><ellipse cx="603.5" cy="307.2422" fill="#84BE84" rx="3" ry="3" style="stroke:#038048;stroke-width:1.0;"/><text fill="#000000" font-family="sans-serif" font-size="11" lengthAdjust="spacing" textLength="176" x="612.5" y="310.4526">destroy(enemy: IEnemy): void;</text><polygon fill="#FFFF44" points="603.5,315.0469,607.5,319.0469,603.5,323.0469,599.5,319.0469" style="stroke:#B38D22;stroke-width:1.0;"/><text fill="#000000" font-family="sans-serif" font-size="11" font-style="italic" lengthAdjust="spacing" textLength="182" x="612.5" y="323.2573">_destroy(enemy: IEnemy): void;</text><!--MD5=[8649ba150655484dfa6787461e486ab0]
class BaseInstantEffect--><rect codeLine="21" fill="#FEFECE" filter="url(#fkzg6kd7qxvzh)" height="112.0234" id="BaseInstantEffect" style="stroke:#A80036;stroke-width:1.5;" width="376" x="281" y="390"/><ellipse cx="411.75" cy="406" fill="#A9DCDF" rx="11" ry="11" style="stroke:#A80036;stroke-width:1.0;"/><path d="M413.8281,407.8125 L414.2188,408.7969 L413.8281,408.7969 C413.375,408.7969 413.2656,408.8125 413.1094,408.9219 C412.8594,409.0781 412.7031,409.3594 412.7031,409.6563 C412.7031,409.9219 412.8438,410.1719 413.0625,410.3281 C413.2031,410.4531 413.4063,410.5 413.8281,410.5 L416.1875,410.5 C416.5469,410.5 416.7656,410.4688 416.9063,410.375 C417.1563,410.2344 417.3125,409.9375 417.3125,409.6563 C417.3125,409.375 417.1719,409.125 416.9531,408.9688 C416.7813,408.8281 416.625,408.7969 416.1563,408.7969 L412.7656,400.5938 L409.0938,400.5938 C408.6406,400.5938 408.5156,400.6094 408.3594,400.7031 C408.1094,400.875 407.9531,401.1563 407.9531,401.4375 C407.9531,401.7188 408.0938,401.9688 408.3125,402.1406 C408.4844,402.25 408.6563,402.2813 409.0938,402.2813 L410.1719,402.2813 L407.5313,408.7969 C407.1094,408.7969 406.9531,408.8125 406.7969,408.9219 C406.5469,409.0781 406.3906,409.3594 406.3906,409.6563 C406.3906,410.2188 406.7656,410.5 407.5156,410.5 L409.7813,410.5 C410.1406,410.5 410.3594,410.4688 410.4844,410.375 C410.75,410.2344 410.8906,409.9375 410.8906,409.6563 C410.8906,409.375 410.7656,409.125 410.5469,408.9531 C410.375,408.8281 410.2344,408.7969 409.7813,408.7969 L409.3906,408.7969 L409.7813,407.8125 L413.8281,407.8125 Z M413.125,406.1094 L410.4531,406.1094 L411.7969,402.8438 L413.125,406.1094 Z " fill="#000000"/><text fill="#000000" font-family="sans-serif" font-size="12" font-style="italic" lengthAdjust="spacing" textLength="106" x="432.25" y="410.1543">BaseInstantEffect</text><line style="stroke:#A80036;stroke-width:1.5;" x1="282" x2="656" y1="422" y2="422"/><polygon fill="none" points="292,428,296,432,292,436,288,432" style="stroke:#B38D22;stroke-width:1.0;"/><text fill="#000000" font-family="sans-serif" font-size="11" lengthAdjust="spacing" textLength="142" x="301" y="436.2104">totalDurationMs: number;</text><line style="stroke:#A80036;stroke-width:1.5;" x1="282" x2="656" y1="442.8047" y2="442.8047"/><ellipse cx="292" cy="453.8047" fill="#84BE84" rx="3" ry="3" style="stroke:#038048;stroke-width:1.0;"/><text fill="#000000" font-family="sans-serif" font-size="11" lengthAdjust="spacing" textLength="115" x="301" y="457.0151">BaseInstantEffect ();</text><text fill="#000000" font-family="sans-serif" font-size="11" lengthAdjust="spacing" textLength="0" x="305" y="469.8198"/><polygon fill="#FFFF44" points="292,474.4141,296,478.4141,292,482.4141,288,478.4141" style="stroke:#B38D22;stroke-width:1.0;"/><text fill="#000000" font-family="sans-serif" font-size="11" lengthAdjust="spacing" textLength="350" x="301" y="482.6245">_update(time: number, delta: number, enemy: IEnemy): void;</text><polygon fill="#FFFF44" points="292,487.2188,296,491.2188,292,495.2188,288,491.2188" style="stroke:#B38D22;stroke-width:1.0;"/><text fill="#000000" font-family="sans-serif" font-size="11" lengthAdjust="spacing" textLength="182" x="301" y="495.4292">_destroy(enemy: IEnemy): void;</text><!--MD5=[a6f2400ea596f41da4a2473993020cc2]
class FlatDamageEffect--><rect codeLine="30" fill="#FEFECE" filter="url(#fkzg6kd7qxvzh)" height="99.2188" id="FlatDamageEffect" style="stroke:#A80036;stroke-width:1.5;" width="252" x="9" y="587.5"/><ellipse cx="78.25" cy="603.5" fill="#ADD1B2" rx="11" ry="11" style="stroke:#A80036;stroke-width:1.0;"/><path d="M80.5938,599.1719 C79.6563,598.7344 79.0625,598.5938 78.1875,598.5938 C75.5625,598.5938 73.5625,600.6719 73.5625,603.3906 L73.5625,604.5156 C73.5625,607.0938 75.6719,608.9844 78.5625,608.9844 C79.7813,608.9844 80.9375,608.6875 81.6875,608.1406 C82.2656,607.7344 82.5938,607.2813 82.5938,606.8906 C82.5938,606.4375 82.2031,606.0469 81.7344,606.0469 C81.5156,606.0469 81.3125,606.125 81.125,606.3125 C80.6719,606.7969 80.6719,606.7969 80.4844,606.8906 C80.0625,607.1563 79.375,607.2813 78.6094,607.2813 C76.5625,607.2813 75.2656,606.1875 75.2656,604.4844 L75.2656,603.3906 C75.2656,601.6094 76.5156,600.2969 78.25,600.2969 C78.8281,600.2969 79.4375,600.4531 79.9063,600.7031 C80.3906,600.9844 80.5625,601.2031 80.6563,601.6094 C80.7188,602.0156 80.75,602.1406 80.8906,602.2656 C81.0313,602.4063 81.2656,602.5156 81.4844,602.5156 C81.75,602.5156 82.0156,602.375 82.1875,602.1563 C82.2969,602 82.3281,601.8125 82.3281,601.3906 L82.3281,599.9688 C82.3281,599.5313 82.3125,599.4063 82.2188,599.25 C82.0625,598.9844 81.7813,598.8438 81.4844,598.8438 C81.1875,598.8438 80.9844,598.9375 80.7656,599.25 L80.5938,599.1719 Z " fill="#000000"/><text fill="#000000" font-family="sans-serif" font-size="12" lengthAdjust="spacing" textLength="105" x="98.75" y="607.6543">FlatDamageEffect</text><line style="stroke:#A80036;stroke-width:1.5;" x1="10" x2="260" y1="619.5" y2="619.5"/><rect fill="none" height="6" style="stroke:#C82930;stroke-width:1.0;" width="6" x="17" y="627.5"/><text fill="#000000" font-family="sans-serif" font-size="11" lengthAdjust="spacing" textLength="116" x="29" y="633.7104">flatAmount: number;</text><line style="stroke:#A80036;stroke-width:1.5;" x1="10" x2="260" y1="640.3047" y2="640.3047"/><ellipse cx="20" cy="651.3047" fill="#84BE84" rx="3" ry="3" style="stroke:#038048;stroke-width:1.0;"/><text fill="#000000" font-family="sans-serif" font-size="11" lengthAdjust="spacing" textLength="226" x="29" y="654.5151">FlatDamageEffect(flatAmount: number);</text><text fill="#000000" font-family="sans-serif" font-size="11" lengthAdjust="spacing" textLength="0" x="33" y="667.3198"/><polygon fill="#FFFF44" points="20,671.9141,24,675.9141,20,679.9141,16,675.9141" style="stroke:#B38D22;stroke-width:1.0;"/><text fill="#000000" font-family="sans-serif" font-size="11" lengthAdjust="spacing" textLength="176" x="29" y="680.1245">_create(enemy: IEnemy): void;</text><!--MD5=[5894407e7daa1d9621609c947f14ea00]
class PercentageDamageEffect--><rect codeLine="38" fill="#FEFECE" filter="url(#fkzg6kd7qxvzh)" height="99.2188" id="PercentageDamageEffect" style="stroke:#A80036;stroke-width:1.5;" width="345" x="296.5" y="587.5"/><ellipse cx="388.75" cy="603.5" fill="#ADD1B2" rx="11" ry="11" style="stroke:#A80036;stroke-width:1.0;"/><path d="M391.0938,599.1719 C390.1563,598.7344 389.5625,598.5938 388.6875,598.5938 C386.0625,598.5938 384.0625,600.6719 384.0625,603.3906 L384.0625,604.5156 C384.0625,607.0938 386.1719,608.9844 389.0625,608.9844 C390.2813,608.9844 391.4375,608.6875 392.1875,608.1406 C392.7656,607.7344 393.0938,607.2813 393.0938,606.8906 C393.0938,606.4375 392.7031,606.0469 392.2344,606.0469 C392.0156,606.0469 391.8125,606.125 391.625,606.3125 C391.1719,606.7969 391.1719,606.7969 390.9844,606.8906 C390.5625,607.1563 389.875,607.2813 389.1094,607.2813 C387.0625,607.2813 385.7656,606.1875 385.7656,604.4844 L385.7656,603.3906 C385.7656,601.6094 387.0156,600.2969 388.75,600.2969 C389.3281,600.2969 389.9375,600.4531 390.4063,600.7031 C390.8906,600.9844 391.0625,601.2031 391.1563,601.6094 C391.2188,602.0156 391.25,602.1406 391.3906,602.2656 C391.5313,602.4063 391.7656,602.5156 391.9844,602.5156 C392.25,602.5156 392.5156,602.375 392.6875,602.1563 C392.7969,602 392.8281,601.8125 392.8281,601.3906 L392.8281,599.9688 C392.8281,599.5313 392.8125,599.4063 392.7188,599.25 C392.5625,598.9844 392.2813,598.8438 391.9844,598.8438 C391.6875,598.8438 391.4844,598.9375 391.2656,599.25 L391.0938,599.1719 Z " fill="#000000"/><text fill="#000000" font-family="sans-serif" font-size="12" lengthAdjust="spacing" textLength="152" x="409.25" y="607.6543">PercentageDamageEffect</text><line style="stroke:#A80036;stroke-width:1.5;" x1="297.5" x2="640.5" y1="619.5" y2="619.5"/><rect fill="none" height="6" style="stroke:#C82930;stroke-width:1.0;" width="6" x="304.5" y="627.5"/><text fill="#000000" font-family="sans-serif" font-size="11" lengthAdjust="spacing" textLength="164" x="316.5" y="633.7104">percentageAmount: number;</text><line style="stroke:#A80036;stroke-width:1.5;" x1="297.5" x2="640.5" y1="640.3047" y2="640.3047"/><ellipse cx="307.5" cy="651.3047" fill="#84BE84" rx="3" ry="3" style="stroke:#038048;stroke-width:1.0;"/><text fill="#000000" font-family="sans-serif" font-size="11" lengthAdjust="spacing" textLength="319" x="316.5" y="654.5151">PercentageDamageEffect(percentageAmount: number);</text><text fill="#000000" font-family="sans-serif" font-size="11" lengthAdjust="spacing" textLength="0" x="320.5" y="667.3198"/><polygon fill="#FFFF44" points="307.5,671.9141,311.5,675.9141,307.5,679.9141,303.5,675.9141" style="stroke:#B38D22;stroke-width:1.0;"/><text fill="#000000" font-family="sans-serif" font-size="11" lengthAdjust="spacing" textLength="176" x="316.5" y="680.1245">_create(enemy: IEnemy): void;</text><!--MD5=[33ab3d64772bfd034804d3bd56f8223c]
class BaseActiveEffect--><rect codeLine="46" fill="#FEFECE" filter="url(#fkzg6kd7qxvzh)" height="73.6094" id="BaseActiveEffect" style="stroke:#A80036;stroke-width:1.5;" width="274" x="957" y="409"/><ellipse cx="1039.75" cy="425" fill="#A9DCDF" rx="11" ry="11" style="stroke:#A80036;stroke-width:1.0;"/><path d="M1041.8281,426.8125 L1042.2188,427.7969 L1041.8281,427.7969 C1041.375,427.7969 1041.2656,427.8125 1041.1094,427.9219 C1040.8594,428.0781 1040.7031,428.3594 1040.7031,428.6563 C1040.7031,428.9219 1040.8438,429.1719 1041.0625,429.3281 C1041.2031,429.4531 1041.4063,429.5 1041.8281,429.5 L1044.1875,429.5 C1044.5469,429.5 1044.7656,429.4688 1044.9063,429.375 C1045.1563,429.2344 1045.3125,428.9375 1045.3125,428.6563 C1045.3125,428.375 1045.1719,428.125 1044.9531,427.9688 C1044.7813,427.8281 1044.625,427.7969 1044.1563,427.7969 L1040.7656,419.5938 L1037.0938,419.5938 C1036.6406,419.5938 1036.5156,419.6094 1036.3594,419.7031 C1036.1094,419.875 1035.9531,420.1563 1035.9531,420.4375 C1035.9531,420.7188 1036.0938,420.9688 1036.3125,421.1406 C1036.4844,421.25 1036.6563,421.2813 1037.0938,421.2813 L1038.1719,421.2813 L1035.5313,427.7969 C1035.1094,427.7969 1034.9531,427.8125 1034.7969,427.9219 C1034.5469,428.0781 1034.3906,428.3594 1034.3906,428.6563 C1034.3906,429.2188 1034.7656,429.5 1035.5156,429.5 L1037.7813,429.5 C1038.1406,429.5 1038.3594,429.4688 1038.4844,429.375 C1038.75,429.2344 1038.8906,428.9375 1038.8906,428.6563 C1038.8906,428.375 1038.7656,428.125 1038.5469,427.9531 C1038.375,427.8281 1038.2344,427.7969 1037.7813,427.7969 L1037.3906,427.7969 L1037.7813,426.8125 L1041.8281,426.8125 Z M1041.125,425.1094 L1038.4531,425.1094 L1039.7969,421.8438 L1041.125,425.1094 Z " fill="#000000"/><text fill="#000000" font-family="sans-serif" font-size="12" font-style="italic" lengthAdjust="spacing" textLength="100" x="1060.25" y="429.1543">BaseActiveEffect</text><line style="stroke:#A80036;stroke-width:1.5;" x1="958" x2="1230" y1="441" y2="441"/><polygon fill="none" points="968,447,972,451,968,455,964,451" style="stroke:#B38D22;stroke-width:1.0;"/><text fill="#000000" font-family="sans-serif" font-size="11" lengthAdjust="spacing" textLength="142" x="977" y="455.2104">totalDurationMs: number;</text><line style="stroke:#A80036;stroke-width:1.5;" x1="958" x2="1230" y1="461.8047" y2="461.8047"/><ellipse cx="968" cy="472.8047" fill="#84BE84" rx="3" ry="3" style="stroke:#038048;stroke-width:1.0;"/><text fill="#000000" font-family="sans-serif" font-size="11" lengthAdjust="spacing" textLength="248" x="977" y="476.0151">BaseActiveEffect(totalDurationMs: number);</text><!--MD5=[8622fba6ff8cabf41da5525a15055c1d]
class FlatSlowEffect--><rect codeLine="52" fill="#FEFECE" filter="url(#fkzg6kd7qxvzh)" height="124.8281" id="FlatSlowEffect" style="stroke:#A80036;stroke-width:1.5;" width="376" x="677" y="574.5"/><ellipse cx="818.75" cy="590.5" fill="#ADD1B2" rx="11" ry="11" style="stroke:#A80036;stroke-width:1.0;"/><path d="M821.0938,586.1719 C820.1563,585.7344 819.5625,585.5938 818.6875,585.5938 C816.0625,585.5938 814.0625,587.6719 814.0625,590.3906 L814.0625,591.5156 C814.0625,594.0938 816.1719,595.9844 819.0625,595.9844 C820.2813,595.9844 821.4375,595.6875 822.1875,595.1406 C822.7656,594.7344 823.0938,594.2813 823.0938,593.8906 C823.0938,593.4375 822.7031,593.0469 822.2344,593.0469 C822.0156,593.0469 821.8125,593.125 821.625,593.3125 C821.1719,593.7969 821.1719,593.7969 820.9844,593.8906 C820.5625,594.1563 819.875,594.2813 819.1094,594.2813 C817.0625,594.2813 815.7656,593.1875 815.7656,591.4844 L815.7656,590.3906 C815.7656,588.6094 817.0156,587.2969 818.75,587.2969 C819.3281,587.2969 819.9375,587.4531 820.4063,587.7031 C820.8906,587.9844 821.0625,588.2031 821.1563,588.6094 C821.2188,589.0156 821.25,589.1406 821.3906,589.2656 C821.5313,589.4063 821.7656,589.5156 821.9844,589.5156 C822.25,589.5156 822.5156,589.375 822.6875,589.1563 C822.7969,589 822.8281,588.8125 822.8281,588.3906 L822.8281,586.9688 C822.8281,586.5313 822.8125,586.4063 822.7188,586.25 C822.5625,585.9844 822.2813,585.8438 821.9844,585.8438 C821.6875,585.8438 821.4844,585.9375 821.2656,586.25 L821.0938,586.1719 Z " fill="#000000"/><text fill="#000000" font-family="sans-serif" font-size="12" lengthAdjust="spacing" textLength="84" x="839.25" y="594.6543">FlatSlowEffect</text><line style="stroke:#A80036;stroke-width:1.5;" x1="678" x2="1052" y1="606.5" y2="606.5"/><rect fill="none" height="6" style="stroke:#C82930;stroke-width:1.0;" width="6" x="685" y="614.5"/><text fill="#000000" font-family="sans-serif" font-size="11" lengthAdjust="spacing" textLength="116" x="697" y="620.7104">flatAmount: number;</text><line style="stroke:#A80036;stroke-width:1.5;" x1="678" x2="1052" y1="627.3047" y2="627.3047"/><ellipse cx="688" cy="638.3047" fill="#84BE84" rx="3" ry="3" style="stroke:#038048;stroke-width:1.0;"/><text fill="#000000" font-family="sans-serif" font-size="11" lengthAdjust="spacing" textLength="350" x="697" y="641.5151">FlatSlowEffect(totalDurationMs: number, flatAmount: number);</text><text fill="#000000" font-family="sans-serif" font-size="11" lengthAdjust="spacing" textLength="0" x="701" y="654.3198"/><polygon fill="#FFFF44" points="688,658.9141,692,662.9141,688,666.9141,684,662.9141" style="stroke:#B38D22;stroke-width:1.0;"/><text fill="#000000" font-family="sans-serif" font-size="11" lengthAdjust="spacing" textLength="176" x="697" y="667.1245">_create(enemy: IEnemy): void;</text><polygon fill="#FFFF44" points="688,671.7188,692,675.7188,688,679.7188,684,675.7188" style="stroke:#B38D22;stroke-width:1.0;"/><text fill="#000000" font-family="sans-serif" font-size="11" lengthAdjust="spacing" textLength="350" x="697" y="679.9292">_update(time: number, delta: number, enemy: IEnemy): void;</text><polygon fill="#FFFF44" points="688,684.5234,692,688.5234,688,692.5234,684,688.5234" style="stroke:#B38D22;stroke-width:1.0;"/><text fill="#000000" font-family="sans-serif" font-size="11" lengthAdjust="spacing" textLength="182" x="697" y="692.7339">_destroy(enemy: IEnemy): void;</text><!--MD5=[84cea104e27d8768006ea9b2ed68cc5a]
class PercentageSlowEffect--><rect codeLine="62" fill="#FEFECE" filter="url(#fkzg6kd7qxvzh)" height="137.6328" id="PercentageSlowEffect" style="stroke:#A80036;stroke-width:1.5;" width="469" x="1088.5" y="568"/><ellipse cx="1253.25" cy="584" fill="#ADD1B2" rx="11" ry="11" style="stroke:#A80036;stroke-width:1.0;"/><path d="M1255.5938,579.6719 C1254.6563,579.2344 1254.0625,579.0938 1253.1875,579.0938 C1250.5625,579.0938 1248.5625,581.1719 1248.5625,583.8906 L1248.5625,585.0156 C1248.5625,587.5938 1250.6719,589.4844 1253.5625,589.4844 C1254.7813,589.4844 1255.9375,589.1875 1256.6875,588.6406 C1257.2656,588.2344 1257.5938,587.7813 1257.5938,587.3906 C1257.5938,586.9375 1257.2031,586.5469 1256.7344,586.5469 C1256.5156,586.5469 1256.3125,586.625 1256.125,586.8125 C1255.6719,587.2969 1255.6719,587.2969 1255.4844,587.3906 C1255.0625,587.6563 1254.375,587.7813 1253.6094,587.7813 C1251.5625,587.7813 1250.2656,586.6875 1250.2656,584.9844 L1250.2656,583.8906 C1250.2656,582.1094 1251.5156,580.7969 1253.25,580.7969 C1253.8281,580.7969 1254.4375,580.9531 1254.9063,581.2031 C1255.3906,581.4844 1255.5625,581.7031 1255.6563,582.1094 C1255.7188,582.5156 1255.75,582.6406 1255.8906,582.7656 C1256.0313,582.9063 1256.2656,583.0156 1256.4844,583.0156 C1256.75,583.0156 1257.0156,582.875 1257.1875,582.6563 C1257.2969,582.5 1257.3281,582.3125 1257.3281,581.8906 L1257.3281,580.4688 C1257.3281,580.0313 1257.3125,579.9063 1257.2188,579.75 C1257.0625,579.4844 1256.7813,579.3438 1256.4844,579.3438 C1256.1875,579.3438 1255.9844,579.4375 1255.7656,579.75 L1255.5938,579.6719 Z " fill="#000000"/><text fill="#000000" font-family="sans-serif" font-size="12" lengthAdjust="spacing" textLength="131" x="1273.75" y="588.1543">PercentageSlowEffect</text><line style="stroke:#A80036;stroke-width:1.5;" x1="1089.5" x2="1556.5" y1="600" y2="600"/><rect fill="none" height="6" style="stroke:#C82930;stroke-width:1.0;" width="6" x="1096.5" y="608"/><text fill="#000000" font-family="sans-serif" font-size="11" lengthAdjust="spacing" textLength="164" x="1108.5" y="614.2104">percentageAmount: number;</text><rect fill="none" height="6" style="stroke:#C82930;stroke-width:1.0;" width="6" x="1096.5" y="620.8047"/><text fill="#000000" font-family="sans-serif" font-size="11" lengthAdjust="spacing" textLength="116" x="1108.5" y="627.0151">flatAmount: number;</text><line style="stroke:#A80036;stroke-width:1.5;" x1="1089.5" x2="1556.5" y1="633.6094" y2="633.6094"/><ellipse cx="1099.5" cy="644.6094" fill="#84BE84" rx="3" ry="3" style="stroke:#038048;stroke-width:1.0;"/><text fill="#000000" font-family="sans-serif" font-size="11" lengthAdjust="spacing" textLength="443" x="1108.5" y="647.8198">PercentageSlowEffect(totalDurationMs: number, percentageAmount: number);</text><text fill="#000000" font-family="sans-serif" font-size="11" lengthAdjust="spacing" textLength="0" x="1112.5" y="660.6245"/><polygon fill="#FFFF44" points="1099.5,665.2188,1103.5,669.2188,1099.5,673.2188,1095.5,669.2188" style="stroke:#B38D22;stroke-width:1.0;"/><text fill="#000000" font-family="sans-serif" font-size="11" lengthAdjust="spacing" textLength="176" x="1108.5" y="673.4292">_create(enemy: IEnemy): void;</text><polygon fill="#FFFF44" points="1099.5,678.0234,1103.5,682.0234,1099.5,686.0234,1095.5,682.0234" style="stroke:#B38D22;stroke-width:1.0;"/><text fill="#000000" font-family="sans-serif" font-size="11" lengthAdjust="spacing" textLength="350" x="1108.5" y="686.2339">_update(time: number, delta: number, enemy: IEnemy): void;</text><polygon fill="#FFFF44" points="1099.5,690.8281,1103.5,694.8281,1099.5,698.8281,1095.5,694.8281" style="stroke:#B38D22;stroke-width:1.0;"/><text fill="#000000" font-family="sans-serif" font-size="11" lengthAdjust="spacing" textLength="182" x="1108.5" y="699.0386">_destroy(enemy: IEnemy): void;</text><!--MD5=[0910c574882b1c15c1b31280816ba8d0]
class BaseActiveOverTimeEffect--><rect codeLine="73" fill="#FEFECE" filter="url(#fkzg6kd7qxvzh)" height="150.4375" id="BaseActiveOverTimeEffect" style="stroke:#A80036;stroke-width:1.5;" width="421" x="1592.5" y="562"/><ellipse cx="1720.25" cy="578" fill="#A9DCDF" rx="11" ry="11" style="stroke:#A80036;stroke-width:1.0;"/><path d="M1722.3281,579.8125 L1722.7188,580.7969 L1722.3281,580.7969 C1721.875,580.7969 1721.7656,580.8125 1721.6094,580.9219 C1721.3594,581.0781 1721.2031,581.3594 1721.2031,581.6563 C1721.2031,581.9219 1721.3438,582.1719 1721.5625,582.3281 C1721.7031,582.4531 1721.9063,582.5 1722.3281,582.5 L1724.6875,582.5 C1725.0469,582.5 1725.2656,582.4688 1725.4063,582.375 C1725.6563,582.2344 1725.8125,581.9375 1725.8125,581.6563 C1725.8125,581.375 1725.6719,581.125 1725.4531,580.9688 C1725.2813,580.8281 1725.125,580.7969 1724.6563,580.7969 L1721.2656,572.5938 L1717.5938,572.5938 C1717.1406,572.5938 1717.0156,572.6094 1716.8594,572.7031 C1716.6094,572.875 1716.4531,573.1563 1716.4531,573.4375 C1716.4531,573.7188 1716.5938,573.9688 1716.8125,574.1406 C1716.9844,574.25 1717.1563,574.2813 1717.5938,574.2813 L1718.6719,574.2813 L1716.0313,580.7969 C1715.6094,580.7969 1715.4531,580.8125 1715.2969,580.9219 C1715.0469,581.0781 1714.8906,581.3594 1714.8906,581.6563 C1714.8906,582.2188 1715.2656,582.5 1716.0156,582.5 L1718.2813,582.5 C1718.6406,582.5 1718.8594,582.4688 1718.9844,582.375 C1719.25,582.2344 1719.3906,581.9375 1719.3906,581.6563 C1719.3906,581.375 1719.2656,581.125 1719.0469,580.9531 C1718.875,580.8281 1718.7344,580.7969 1718.2813,580.7969 L1717.8906,580.7969 L1718.2813,579.8125 L1722.3281,579.8125 Z M1721.625,578.1094 L1718.9531,578.1094 L1720.2969,574.8438 L1721.625,578.1094 Z " fill="#000000"/><text fill="#000000" font-family="sans-serif" font-size="12" font-style="italic" lengthAdjust="spacing" textLength="157" x="1740.75" y="582.1543">BaseActiveOverTimeEffect</text><line style="stroke:#A80036;stroke-width:1.5;" x1="1593.5" x2="2012.5" y1="594" y2="594"/><rect fill="none" height="6" style="stroke:#C82930;stroke-width:1.0;" width="6" x="1600.5" y="602"/><text fill="#000000" font-family="sans-serif" font-size="11" lengthAdjust="spacing" textLength="86" x="1612.5" y="608.2104">times: number;</text><rect fill="none" height="6" style="stroke:#C82930;stroke-width:1.0;" width="6" x="1600.5" y="614.8047"/><text fill="#000000" font-family="sans-serif" font-size="11" lengthAdjust="spacing" textLength="106" x="1612.5" y="621.0151">tickCount: number;</text><line style="stroke:#A80036;stroke-width:1.5;" x1="1593.5" x2="2012.5" y1="627.6094" y2="627.6094"/><ellipse cx="1603.5" cy="638.6094" fill="#84BE84" rx="3" ry="3" style="stroke:#038048;stroke-width:1.0;"/><text fill="#000000" font-family="sans-serif" font-size="11" lengthAdjust="spacing" textLength="395" x="1612.5" y="641.8198">BaseActiveOverTimeEffect(totalDurationMs: number, times: number);</text><text fill="#000000" font-family="sans-serif" font-size="11" lengthAdjust="spacing" textLength="0" x="1616.5" y="654.6245"/><polygon fill="#FFFF44" points="1603.5,659.2188,1607.5,663.2188,1603.5,667.2188,1599.5,663.2188" style="stroke:#B38D22;stroke-width:1.0;"/><text fill="#000000" font-family="sans-serif" font-size="11" lengthAdjust="spacing" textLength="176" x="1612.5" y="667.4292">_create(enemy: IEnemy): void;</text><polygon fill="#FFFF44" points="1603.5,672.0234,1607.5,676.0234,1603.5,680.0234,1599.5,676.0234" style="stroke:#B38D22;stroke-width:1.0;"/><text fill="#000000" font-family="sans-serif" font-size="11" lengthAdjust="spacing" textLength="319" x="1612.5" y="680.2339">_update(time: number, delta: number, enemy: IEnemy);</text><polygon fill="#FFFF44" points="1603.5,684.8281,1607.5,688.8281,1603.5,692.8281,1599.5,688.8281" style="stroke:#B38D22;stroke-width:1.0;"/><text fill="#000000" font-family="sans-serif" font-size="11" font-style="italic" lengthAdjust="spacing" textLength="152" x="1612.5" y="693.0386">tick(enemy: IEnemy): void;</text><polygon fill="#FFFF44" points="1603.5,697.6328,1607.5,701.6328,1603.5,705.6328,1599.5,701.6328" style="stroke:#B38D22;stroke-width:1.0;"/><text fill="#000000" font-family="sans-serif" font-size="11" lengthAdjust="spacing" textLength="182" x="1612.5" y="705.8433">_destroy(enemy: IEnemy): void;</text><!--MD5=[4838b67232d8f583fe44710e4dd3be1c]
class FlatFireEffect--><rect codeLine="85" fill="#FEFECE" filter="url(#fkzg6kd7qxvzh)" height="99.2188" id="FlatFireEffect" style="stroke:#A80036;stroke-width:1.5;" width="460" x="1302" y="772"/><ellipse cx="1488.75" cy="788" fill="#ADD1B2" rx="11" ry="11" style="stroke:#A80036;stroke-width:1.0;"/><path d="M1491.0938,783.6719 C1490.1563,783.2344 1489.5625,783.0938 1488.6875,783.0938 C1486.0625,783.0938 1484.0625,785.1719 1484.0625,787.8906 L1484.0625,789.0156 C1484.0625,791.5938 1486.1719,793.4844 1489.0625,793.4844 C1490.2813,793.4844 1491.4375,793.1875 1492.1875,792.6406 C1492.7656,792.2344 1493.0938,791.7813 1493.0938,791.3906 C1493.0938,790.9375 1492.7031,790.5469 1492.2344,790.5469 C1492.0156,790.5469 1491.8125,790.625 1491.625,790.8125 C1491.1719,791.2969 1491.1719,791.2969 1490.9844,791.3906 C1490.5625,791.6563 1489.875,791.7813 1489.1094,791.7813 C1487.0625,791.7813 1485.7656,790.6875 1485.7656,788.9844 L1485.7656,787.8906 C1485.7656,786.1094 1487.0156,784.7969 1488.75,784.7969 C1489.3281,784.7969 1489.9375,784.9531 1490.4063,785.2031 C1490.8906,785.4844 1491.0625,785.7031 1491.1563,786.1094 C1491.2188,786.5156 1491.25,786.6406 1491.3906,786.7656 C1491.5313,786.9063 1491.7656,787.0156 1491.9844,787.0156 C1492.25,787.0156 1492.5156,786.875 1492.6875,786.6563 C1492.7969,786.5 1492.8281,786.3125 1492.8281,785.8906 L1492.8281,784.4688 C1492.8281,784.0313 1492.8125,783.9063 1492.7188,783.75 C1492.5625,783.4844 1492.2813,783.3438 1491.9844,783.3438 C1491.6875,783.3438 1491.4844,783.4375 1491.2656,783.75 L1491.0938,783.6719 Z " fill="#000000"/><text fill="#000000" font-family="sans-serif" font-size="12" lengthAdjust="spacing" textLength="78" x="1509.25" y="792.1543">FlatFireEffect</text><line style="stroke:#A80036;stroke-width:1.5;" x1="1303" x2="1761" y1="804" y2="804"/><rect fill="none" height="6" style="stroke:#C82930;stroke-width:1.0;" width="6" x="1310" y="812"/><text fill="#000000" font-family="sans-serif" font-size="11" lengthAdjust="spacing" textLength="116" x="1322" y="818.2104">flatAmount: number;</text><line style="stroke:#A80036;stroke-width:1.5;" x1="1303" x2="1761" y1="824.8047" y2="824.8047"/><ellipse cx="1313" cy="835.8047" fill="#84BE84" rx="3" ry="3" style="stroke:#038048;stroke-width:1.0;"/><text fill="#000000" font-family="sans-serif" font-size="11" lengthAdjust="spacing" textLength="434" x="1322" y="839.0151">FlatFireEffect(totalDurationMs: number, times: number, flatAmount: number);</text><text fill="#000000" font-family="sans-serif" font-size="11" lengthAdjust="spacing" textLength="0" x="1326" y="851.8198"/><polygon fill="#FFFF44" points="1313,856.4141,1317,860.4141,1313,864.4141,1309,860.4141" style="stroke:#B38D22;stroke-width:1.0;"/><text fill="#000000" font-family="sans-serif" font-size="11" lengthAdjust="spacing" textLength="121" x="1322" y="864.6245">tick(enemy: IEnemy);</text><!--MD5=[c1180299ba3b7d8670118593e163430d]
class PercentageFireEffect--><rect codeLine="93" fill="#FEFECE" filter="url(#fkzg6kd7qxvzh)" height="99.2188" id="PercentageFireEffect" style="stroke:#A80036;stroke-width:1.5;" width="553" x="1797.5" y="772"/><ellipse cx="2007.25" cy="788" fill="#ADD1B2" rx="11" ry="11" style="stroke:#A80036;stroke-width:1.0;"/><path d="M2009.5938,783.6719 C2008.6563,783.2344 2008.0625,783.0938 2007.1875,783.0938 C2004.5625,783.0938 2002.5625,785.1719 2002.5625,787.8906 L2002.5625,789.0156 C2002.5625,791.5938 2004.6719,793.4844 2007.5625,793.4844 C2008.7813,793.4844 2009.9375,793.1875 2010.6875,792.6406 C2011.2656,792.2344 2011.5938,791.7813 2011.5938,791.3906 C2011.5938,790.9375 2011.2031,790.5469 2010.7344,790.5469 C2010.5156,790.5469 2010.3125,790.625 2010.125,790.8125 C2009.6719,791.2969 2009.6719,791.2969 2009.4844,791.3906 C2009.0625,791.6563 2008.375,791.7813 2007.6094,791.7813 C2005.5625,791.7813 2004.2656,790.6875 2004.2656,788.9844 L2004.2656,787.8906 C2004.2656,786.1094 2005.5156,784.7969 2007.25,784.7969 C2007.8281,784.7969 2008.4375,784.9531 2008.9063,785.2031 C2009.3906,785.4844 2009.5625,785.7031 2009.6563,786.1094 C2009.7188,786.5156 2009.75,786.6406 2009.8906,786.7656 C2010.0313,786.9063 2010.2656,787.0156 2010.4844,787.0156 C2010.75,787.0156 2011.0156,786.875 2011.1875,786.6563 C2011.2969,786.5 2011.3281,786.3125 2011.3281,785.8906 L2011.3281,784.4688 C2011.3281,784.0313 2011.3125,783.9063 2011.2188,783.75 C2011.0625,783.4844 2010.7813,783.3438 2010.4844,783.3438 C2010.1875,783.3438 2009.9844,783.4375 2009.7656,783.75 L2009.5938,783.6719 Z " fill="#000000"/><text fill="#000000" font-family="sans-serif" font-size="12" lengthAdjust="spacing" textLength="125" x="2027.75" y="792.1543">PercentageFireEffect</text><line style="stroke:#A80036;stroke-width:1.5;" x1="1798.5" x2="2349.5" y1="804" y2="804"/><rect fill="none" height="6" style="stroke:#C82930;stroke-width:1.0;" width="6" x="1805.5" y="812"/><text fill="#000000" font-family="sans-serif" font-size="11" lengthAdjust="spacing" textLength="164" x="1817.5" y="818.2104">percentageAmount: number;</text><line style="stroke:#A80036;stroke-width:1.5;" x1="1798.5" x2="2349.5" y1="824.8047" y2="824.8047"/><ellipse cx="1808.5" cy="835.8047" fill="#84BE84" rx="3" ry="3" style="stroke:#038048;stroke-width:1.0;"/><text fill="#000000" font-family="sans-serif" font-size="11" lengthAdjust="spacing" textLength="527" x="1817.5" y="839.0151">PercentageFireEffect(totalDurationMs: number, times: number, percentageAmount: number);</text><text fill="#000000" font-family="sans-serif" font-size="11" lengthAdjust="spacing" textLength="0" x="1821.5" y="851.8198"/><polygon fill="#FFFF44" points="1808.5,856.4141,1812.5,860.4141,1808.5,864.4141,1804.5,860.4141" style="stroke:#B38D22;stroke-width:1.0;"/><text fill="#000000" font-family="sans-serif" font-size="11" lengthAdjust="spacing" textLength="121" x="1817.5" y="864.6245">tick(enemy: IEnemy);</text><!--MD5=[6af4114f4fb4d0ba3a18691c5f4d0767]
reverse link IEffect to BaseEffect--><path d="M781,101.382 C781,113.772 781,127.215 781,140.634 " fill="none" id="IEffect-backto-BaseEffect" style="stroke:#A80036;stroke-width:1.0;stroke-dasharray:7.0,7.0;"/><polygon fill="none" points="774,101.09,781,81.09,788,101.09,774,101.09" style="stroke:#A80036;stroke-width:1.0;"/><!--MD5=[337c0003ac42125187c624680bf46ff6]
reverse link BaseEffect to BaseInstantEffect--><path d="M624.053,341.383 C598.94,358.165 573.86,374.926 551.415,389.924 " fill="none" id="BaseEffect-backto-BaseInstantEffect" style="stroke:#A80036;stroke-width:1.0;"/><polygon fill="none" points="620.453,335.369,640.971,330.077,628.232,347.009,620.453,335.369" style="stroke:#A80036;stroke-width:1.0;"/><!--MD5=[fb485bcd6f77507304e03012d7c658ae]
reverse link BaseInstantEffect to FlatDamageEffect--><path d="M353.814,512.18 C310.231,536.842 261.423,564.461 220.98,587.347 " fill="none" id="BaseInstantEffect-backto-FlatDamageEffect" style="stroke:#A80036;stroke-width:1.0;"/><polygon fill="none" points="350.642,505.932,371.496,502.175,357.537,518.117,350.642,505.932" style="stroke:#A80036;stroke-width:1.0;"/><!--MD5=[f9811d79ce89cf1726dfc4539d5ca3bd]
reverse link BaseInstantEffect to PercentageDamageEffect--><path d="M469,522.48 C469,544.275 469,567.478 469,587.189 " fill="none" id="BaseInstantEffect-backto-PercentageDamageEffect" style="stroke:#A80036;stroke-width:1.0;"/><polygon fill="none" points="462,522.175,469,502.175,476,522.175,462,522.175" style="stroke:#A80036;stroke-width:1.0;"/><!--MD5=[48a7220278f2632b39d8543bcde82c1c]
reverse link BaseEffect to BaseActiveEffect--><path d="M938.237,341.241 C974.768,365.576 1011.25,389.874 1039.71,408.834 " fill="none" id="BaseEffect-backto-BaseActiveEffect" style="stroke:#A80036;stroke-width:1.0;"/><polygon fill="none" points="934.242,346.991,921.478,330.077,942.004,335.339,934.242,346.991" style="stroke:#A80036;stroke-width:1.0;"/><!--MD5=[dc9c65d6108ca0b29a5e6c9fe57f7d47]
reverse link BaseActiveEffect to FlatSlowEffect--><path d="M1034.33,496.245 C1005.453,520.08 970.481,548.944 939.835,574.237 " fill="none" id="BaseActiveEffect-backto-FlatSlowEffect" style="stroke:#A80036;stroke-width:1.0;"/><polygon fill="none" points="1030.24,490.549,1050.12,483.217,1039.15,501.347,1030.24,490.549" style="stroke:#A80036;stroke-width:1.0;"/><!--MD5=[df079c3fe255c04cf6f6a5b212103648]
reverse link BaseActiveEffect to PercentageSlowEffect--><path d="M1153.62,496.206 C1180.07,518.039 1211.65,544.097 1240.33,567.766 " fill="none" id="BaseActiveEffect-backto-PercentageSlowEffect" style="stroke:#A80036;stroke-width:1.0;"/><polygon fill="none" points="1148.85,501.347,1137.88,483.217,1157.76,490.549,1148.85,501.347" style="stroke:#A80036;stroke-width:1.0;"/><!--MD5=[af27b72da287bcdc1b6caead5b16699a]
reverse link BaseActiveEffect to BaseActiveOverTimeEffect--><path d="M1250.77,481.182 C1345.19,502.586 1467.55,531.769 1575,562 C1580.71,563.606 1586.49,565.263 1592.31,566.959 " fill="none" id="BaseActiveEffect-backto-BaseActiveOverTimeEffect" style="stroke:#A80036;stroke-width:1.0;"/><polygon fill="none" points="1249.03,487.965,1231.06,476.735,1252.11,474.308,1249.03,487.965" style="stroke:#A80036;stroke-width:1.0;"/><!--MD5=[9050a48b95e858bbdd489d32479abee3]
reverse link BaseActiveOverTimeEffect to FlatFireEffect--><path d="M1676.17,723.408 C1651.43,740.074 1626.29,757.001 1604.09,771.9528 " fill="none" id="BaseActiveOverTimeEffect-backto-FlatFireEffect" style="stroke:#A80036;stroke-width:1.0;"/><polygon fill="none" points="1672.27,717.595,1692.77,712.23,1680.09,729.208,1672.27,717.595" style="stroke:#A80036;stroke-width:1.0;"/><!--MD5=[f77951440f0589280b6592dd234f7794]
reverse link BaseActiveOverTimeEffect to PercentageFireEffect--><path d="M1929.83,723.408 C1954.57,740.074 1979.71,757.001 2001.91,771.9528 " fill="none" id="BaseActiveOverTimeEffect-backto-PercentageFireEffect" style="stroke:#A80036;stroke-width:1.0;"/><polygon fill="none" points="1925.91,729.208,1913.23,712.23,1933.73,717.595,1925.91,729.208" style="stroke:#A80036;stroke-width:1.0;"/><!--MD5=[b27827c3a2ad27793e299bbdddcef309]
@startuml
interface IEffect {
	+ isDestroyed: boolean;
	+ update(time: number, delta: number, enemy: IEnemy): void;
}

abstract class BaseEffect implements IEffect {
	+ {abstract} totalDurationMs: number;
	+ elapsedDurationMs: number;
	+ isApplied: boolean;

	+ BaseEffect ();

	- create(enemy: IEnemy): void;
	# {abstract} _create(enemy: IEnemy): void;
	+ update(enemy: IEnemy, delta: number): void;
	# {abstract} _update(time: number, delta: number, enemy: IEnemy): void;
	+ destroy(enemy: IEnemy): void;
	# {abstract} _destroy(enemy: IEnemy): void;
}

abstract class BaseInstantEffect extends BaseEffect {
	# totalDurationMs: number;

	+ BaseInstantEffect ();

	# _update(time: number, delta: number, enemy: IEnemy): void;
	# _destroy(enemy: IEnemy): void;
}

class FlatDamageEffect extends BaseInstantEffect {
    - flatAmount: number;
	
    + FlatDamageEffect(flatAmount: number);

    # _create(enemy: IEnemy): void;
}

class PercentageDamageEffect extends BaseInstantEffect {
    - percentageAmount: number;

    + PercentageDamageEffect(percentageAmount: number);

    # _create(enemy: IEnemy): void;
}

abstract class BaseActiveEffect extends BaseEffect {
    # totalDurationMs: number;

    + BaseActiveEffect(totalDurationMs: number);
}

class FlatSlowEffect extends BaseActiveEffect {
    - flatAmount: number;

    +FlatSlowEffect(totalDurationMs: number, flatAmount: number);

    # _create(enemy: IEnemy): void;
    # _update(time: number, delta: number, enemy: IEnemy): void;
    # _destroy(enemy: IEnemy): void;
}

class PercentageSlowEffect extends BaseActiveEffect {
    - percentageAmount: number;
    - flatAmount: number;

    + PercentageSlowEffect(totalDurationMs: number, percentageAmount: number);

    # _create(enemy: IEnemy): void;
    # _update(time: number, delta: number, enemy: IEnemy): void;
    # _destroy(enemy: IEnemy): void;
}

abstract class BaseActiveOverTimeEffect extends BaseActiveEffect {
    - times: number;
    - tickCount: number;

    + BaseActiveOverTimeEffect(totalDurationMs: number, times: number);

    # _create(enemy: IEnemy): void;
    # _update(time: number, delta: number, enemy: IEnemy);
    # {abstract} tick(enemy: IEnemy): void;
    # _destroy(enemy: IEnemy): void;
}

class FlatFireEffect extends BaseActiveOverTimeEffect {
    - flatAmount: number;

    + FlatFireEffect(totalDurationMs: number, times: number, flatAmount: number);

	# tick(enemy: IEnemy);
}

class PercentageFireEffect extends BaseActiveOverTimeEffect {
    - percentageAmount: number;

    + PercentageFireEffect(totalDurationMs: number, times: number, percentageAmount: number);

    #  tick(enemy: IEnemy);
}
@enduml

PlantUML version 1.2021.2(Sun Mar 07 11:10:27 UTC 2021)
(GPL source distribution)
Java Runtime: Java(TM) SE Runtime Environment
JVM: Java HotSpot(TM) 64-Bit Server VM
Default Encoding: UTF-8
Language: en
Country: US
--></g></svg>